<svg xmlns="http://www.w3.org/2000/svg" viewBox="0 0 512 512">
  <defs>
    <linearGradient id="g" x1="0" x2="1" y1="0" y2="1">
      <stop offset="0" stop-color="#3556c4"/>
      <stop offset="1" stop-color="#0f6cbd"/>
    </linearGradient>
  </defs>
  <rect width="512" height="512" fill="url(#g)"/>
  <circle cx="256" cy="256" r="190" fill="rgba(255,255,255,0.14)"/>
  <path d="M156 170h200a24 24 0 0 1 24 24v124a24 24 0 0 1-24 24H156a24 24 0 0 1-24-24V194a24 24 0 0 1 24-24z" fill="rgba(11,18,32,0.55)"/>
  <path d="M192 220h132a16 16 0 1 1 0 32H192a16 16 0 0 1 0-32zm0 56h92a16 16 0 1 1 0 32h-92a16 16 0 1 1 0-32z" fill="#ffffff"/>
  <path d="M344 212a16 16 0 0 1 16 16v96a16 16 0 1 1-32 0v-96a16 16 0 0 1 16-16z" fill="#ffffff" opacity="0.9"/>
</svg>

